<svg width="69" height="15" viewBox="0 0 69 15" fill="none" xmlns="http://www.w3.org/2000/svg">
<path d="M0.198509 11H1.75391V9.72692H1.88707C2.17472 10.2489 2.76065 11.1598 4.25213 11.1598C6.23367 11.1598 7.67188 9.57244 7.67188 6.92507C7.67188 4.27237 6.21236 2.71165 4.23615 2.71165C2.71804 2.71165 2.16939 3.63849 1.88707 4.14453H1.79119V0.0909088H0.198509V11ZM1.75923 6.90909C1.75923 5.19922 2.50497 4.06463 3.89524 4.06463C5.33878 4.06463 6.06321 5.28445 6.06321 6.90909C6.06321 8.54972 5.31747 9.80149 3.89524 9.80149C2.52628 9.80149 1.75923 8.62962 1.75923 6.90909ZM12.9067 11.1651C15.2132 11.1651 16.7206 9.47656 16.7206 6.94638C16.7206 4.40021 15.2132 2.71165 12.9067 2.71165C10.6002 2.71165 9.09277 4.40021 9.09277 6.94638C9.09277 9.47656 10.6002 11.1651 12.9067 11.1651ZM12.912 9.82812C11.4046 9.82812 10.7014 8.51243 10.7014 6.94105C10.7014 5.375 11.4046 4.04332 12.912 4.04332C14.4088 4.04332 15.1119 5.375 15.1119 6.94105C15.1119 8.51243 14.4088 9.82812 12.912 9.82812ZM21.9448 11.1651C24.2512 11.1651 25.7587 9.47656 25.7587 6.94638C25.7587 4.40021 24.2512 2.71165 21.9448 2.71165C19.6383 2.71165 18.1309 4.40021 18.1309 6.94638C18.1309 9.47656 19.6383 11.1651 21.9448 11.1651ZM21.9501 9.82812C20.4426 9.82812 19.7395 8.51243 19.7395 6.94105C19.7395 5.375 20.4426 4.04332 21.9501 4.04332C23.4469 4.04332 24.15 5.375 24.15 6.94105C24.15 8.51243 23.4469 9.82812 21.9501 9.82812ZM31.3557 2.81818H29.6778V0.857954H28.0851V2.81818H26.8866V4.09659H28.0851V8.92791C28.0798 10.4141 29.2144 11.1332 30.4715 11.1065C30.9775 11.1012 31.3184 11.0053 31.5049 10.9361L31.2172 9.62038C31.1107 9.64169 30.9136 9.68963 30.6579 9.68963C30.1412 9.68963 29.6778 9.51918 29.6778 8.59766V4.09659H31.3557V2.81818ZM39.1167 4.8157C38.7865 3.54261 37.7904 2.71165 36.0219 2.71165C34.1736 2.71165 32.8632 3.68643 32.8632 5.1353C32.8632 6.29652 33.5663 7.06889 35.1004 7.4098L36.4854 7.71342C37.2737 7.8892 37.6412 8.24077 37.6412 8.75213C37.6412 9.38601 36.9648 9.88139 35.9207 9.88139C34.9672 9.88139 34.3547 9.47124 34.1629 8.6669L32.6235 8.90128C32.8898 10.3501 34.0937 11.1651 35.9314 11.1651C37.9076 11.1651 39.2765 10.1158 39.2765 8.63494C39.2765 7.47905 38.5415 6.76527 37.0393 6.41903L35.7396 6.12074C34.8394 5.90767 34.4506 5.60405 34.4559 5.05007C34.4506 4.42152 35.1324 3.97408 36.0379 3.97408C37.0287 3.97408 37.4868 4.52273 37.6732 5.07138L39.1167 4.8157ZM44.8469 2.81818H43.169V0.857954H41.5763V2.81818H40.3778V4.09659H41.5763V8.92791C41.571 10.4141 42.7056 11.1332 43.9627 11.1065C44.4688 11.1012 44.8097 11.0053 44.9961 10.9361L44.7085 9.62038C44.6019 9.64169 44.4048 9.68963 44.1491 9.68963C43.6325 9.68963 43.169 9.51918 43.169 8.59766V4.09659H44.8469V2.81818ZM46.6088 11H48.2014V6.00355C48.2014 4.93288 49.0271 4.16051 50.1563 4.16051C50.4866 4.16051 50.8595 4.2191 50.9873 4.25639V2.73295C50.8275 2.71165 50.5132 2.69567 50.3108 2.69567C49.352 2.69567 48.5317 3.23899 48.2334 4.1179H48.1482V2.81818H46.6088V11ZM54.6734 11.1811C56.0264 11.1811 56.7881 10.494 57.0917 9.88139H57.1556V11H58.711V5.56676C58.711 3.18572 56.836 2.71165 55.5363 2.71165C54.0555 2.71165 52.6919 3.30824 52.1592 4.79972L53.656 5.14062C53.8904 4.56001 54.4869 4.00071 55.5576 4.00071C56.5857 4.00071 57.113 4.53871 57.113 5.46555V5.50284C57.113 6.08345 56.5164 6.0728 55.0463 6.24325C53.4962 6.42436 51.9088 6.82919 51.9088 8.68821C51.9088 10.2969 53.118 11.1811 54.6734 11.1811ZM55.0196 9.9027C54.1194 9.9027 53.4695 9.49787 53.4695 8.70952C53.4695 7.85724 54.2259 7.55362 55.1475 7.43111C55.6642 7.36186 56.8893 7.22337 57.1183 6.99432V8.04901C57.1183 9.01847 56.346 9.9027 55.0196 9.9027ZM60.8324 14.0682H62.4251V9.72692H62.521C62.8086 10.2489 63.3945 11.1598 64.886 11.1598C66.8675 11.1598 68.3058 9.57244 68.3058 6.92507C68.3058 4.27237 66.8462 2.71165 64.87 2.71165C63.3519 2.71165 62.8033 3.63849 62.521 4.14453H62.3878V2.81818H60.8324V14.0682ZM62.3931 6.90909C62.3931 5.19922 63.1388 4.06463 64.5291 4.06463C65.9727 4.06463 66.6971 5.28445 66.6971 6.90909C66.6971 8.54972 65.9513 9.80149 64.5291 9.80149C63.1602 9.80149 62.3931 8.62962 62.3931 6.90909Z" fill="white"/>
</svg>
