<svg width="24" height="10" viewBox="0 0 24 10" fill="none" xmlns="http://www.w3.org/2000/svg">
<path d="M4.51705 9.16513C6.45064 9.16513 7.70241 8.00391 7.8782 6.41122H6.32812C6.12571 7.29545 5.43857 7.81747 4.5277 7.81747C3.18004 7.81747 2.31179 6.69354 2.31179 4.90909C2.31179 3.15661 3.19602 2.05398 4.5277 2.05398C5.53977 2.05398 6.15767 2.69318 6.32812 3.46023H7.8782C7.70774 1.80895 6.36009 0.711648 4.50107 0.711648C2.1946 0.711648 0.703125 2.44815 0.703125 4.94638C0.703125 7.41264 2.14134 9.16513 4.51705 9.16513ZM15.7124 2.8157C15.3822 1.54261 14.3861 0.711648 12.6176 0.711648C10.7693 0.711648 9.4589 1.68643 9.4589 3.1353C9.4589 4.29652 10.162 5.06889 11.6961 5.4098L13.0811 5.71342C13.8694 5.8892 14.2369 6.24077 14.2369 6.75213C14.2369 7.38601 13.5605 7.88139 12.5164 7.88139C11.5629 7.88139 10.9504 7.47124 10.7586 6.6669L9.21919 6.90128C9.48553 8.35014 10.6894 9.16513 12.5271 9.16513C14.5033 9.16513 15.8722 8.11577 15.8722 6.63494C15.8722 5.47905 15.1372 4.76527 13.635 4.41903L12.3353 4.12074C11.4351 3.90767 11.0463 3.60405 11.0516 3.05007C11.0463 2.42152 11.7281 1.97408 12.6336 1.97408C13.6244 1.97408 14.0825 2.52273 14.2689 3.07138L15.7124 2.8157ZM23.7544 2.8157C23.4242 1.54261 22.4281 0.711648 20.6596 0.711648C18.8113 0.711648 17.5009 1.68643 17.5009 3.1353C17.5009 4.29652 18.204 5.06889 19.7381 5.4098L21.123 5.71342C21.9114 5.8892 22.2789 6.24077 22.2789 6.75213C22.2789 7.38601 21.6025 7.88139 20.5584 7.88139C19.6049 7.88139 18.9924 7.47124 18.8006 6.6669L17.2612 6.90128C17.5275 8.35014 18.7314 9.16513 20.5691 9.16513C22.5453 9.16513 23.9142 8.11577 23.9142 6.63494C23.9142 5.47905 23.1792 4.76527 21.677 4.41903L20.3773 4.12074C19.4771 3.90767 19.0882 3.60405 19.0936 3.05007C19.0882 2.42152 19.7701 1.97408 20.6756 1.97408C21.6664 1.97408 22.1245 2.52273 22.3109 3.07138L23.7544 2.8157Z" fill="white"/>
</svg>
