<svg width="30" height="12" viewBox="0 0 30 12" fill="none" xmlns="http://www.w3.org/2000/svg">
<path d="M1.66335 6.14205C1.66335 4.837 2.48899 4.09126 3.62358 4.09126C4.72088 4.09126 5.37607 4.78906 5.37607 5.98757V11H6.96875V5.79581C6.96875 3.75568 5.85014 2.71165 4.1669 2.71165C2.89382 2.71165 2.12678 3.26562 1.74325 4.14986H1.64205V0.0909088H0.0706677V11H1.66335V6.14205ZM12.9134 2.81818H11.2354V0.857954H9.64276V2.81818H8.44425V4.09659H9.64276V8.92791C9.63743 10.4141 10.772 11.1332 12.0291 11.1065C12.5352 11.1012 12.8761 11.0053 13.0625 10.9361L12.7749 9.62038C12.6683 9.64169 12.4712 9.68963 12.2156 9.68963C11.6989 9.68963 11.2354 9.51918 11.2354 8.59766V4.09659H12.9134V2.81818ZM14.6752 11H16.2678V5.95561C16.2678 4.85298 17.0402 4.08594 17.9458 4.08594C18.83 4.08594 19.4426 4.67188 19.4426 5.56143V11H21.0299V5.78516C21.0299 4.79972 21.6318 4.08594 22.6705 4.08594C23.5122 4.08594 24.2046 4.55469 24.2046 5.66264V11H25.7973V5.51349C25.7973 3.64382 24.7533 2.71165 23.2725 2.71165C22.0953 2.71165 21.211 3.27628 20.8169 4.14986H20.7316C20.3747 3.25497 19.6237 2.71165 18.5317 2.71165C17.4504 2.71165 16.646 3.24964 16.3051 4.14986H16.2039V2.81818H14.6752V11ZM29.5247 0.0909088H27.932V11H29.5247V0.0909088Z" fill="white"/>
</svg>
