<svg width="35" height="15" viewBox="0 0 35 15" fill="none" xmlns="http://www.w3.org/2000/svg">
<path d="M0.198509 11H1.84446V6.8718H4.08168C4.11896 6.8718 4.15092 6.8718 4.18821 6.8718L6.40412 11H8.27912L5.8608 6.58416C7.1978 6.08878 7.86364 4.9755 7.86364 3.51065C7.86364 1.50249 6.61719 0.0909088 4.087 0.0909088H0.198509V11ZM1.84446 5.4549V1.50249H3.91122C5.53587 1.50249 6.20703 2.27486 6.20703 3.51065C6.20703 4.74112 5.53587 5.4549 3.93253 5.4549H1.84446ZM14.9215 7.60689C14.9268 8.99716 13.8935 9.65767 12.9986 9.65767C12.0131 9.65767 11.3313 8.94389 11.3313 7.83061V2.81818H9.73864V8.02237C9.73864 10.0518 10.8519 11.1065 12.4233 11.1065C13.6538 11.1065 14.4901 10.4567 14.8683 9.5831H14.9535V11H16.5195V2.81818H14.9215V7.60689ZM18.7874 11H20.3428V9.72692H20.4759C20.7636 10.2489 21.3495 11.1598 22.841 11.1598C24.8225 11.1598 26.2607 9.57244 26.2607 6.92507C26.2607 4.27237 24.8012 2.71165 22.825 2.71165C21.3069 2.71165 20.7583 3.63849 20.4759 4.14453H20.3801V0.0909088H18.7874V11ZM20.3481 6.90909C20.3481 5.19922 21.0938 4.06463 22.4841 4.06463C23.9276 4.06463 24.6521 5.28445 24.6521 6.90909C24.6521 8.54972 23.9063 9.80149 22.4841 9.80149C21.1151 9.80149 20.3481 8.62962 20.3481 6.90909ZM28.763 14.0469C30.0787 14.0469 30.915 13.3597 31.3837 12.092L34.7662 2.83416L33.0456 2.81818L30.9735 9.16761H30.8883L28.8162 2.81818H27.1117L30.1053 11.1065L29.9082 11.6499C29.5034 12.7099 28.9334 12.8058 28.0598 12.5661L27.6763 13.8711C27.8681 13.9616 28.2836 14.0469 28.763 14.0469Z" fill="white"/>
</svg>
